<?xml version="1.0" encoding="utf-8"?>
<!-- Generator: Adobe Illustrator 20.1.0, SVG Export Plug-In . SVG Version: 6.00 Build 0)  -->
<svg version="1.1" id="Layer_1" xmlns="http://www.w3.org/2000/svg" xmlns:xlink="http://www.w3.org/1999/xlink" x="0px" y="0px"
	 viewBox="0 0 20 20" style="enable-background:new 0 0 20 20;" xml:space="preserve">
<style type="text/css">
	.st0{fill:#A4A6AB;}
	.st1{fill:#FFFFFF;}
</style>
<circle class="st0" cx="10" cy="10" r="10"/>
<g>
	<path class="st1" d="M12.4,10l2.4-2.4c0.3-0.3,0.3-0.8,0-1.2l-1.2-1.2c-0.3-0.3-0.8-0.3-1.2,0L10,7.6L7.6,5.4C7.4,5,6.9,5,6.6,5.4
		l-1.2,1C5,6.9,5,7.4,5.4,7.6L7.6,10l-2.4,2.4c-0.3,0.3-0.3,0.8,0,1.2l1.2,1.2c0.3,0.3,0.8,0.3,1.2,0l2.4-2.4l2.4,2.4
		c0.3,0.3,0.8,0.3,1.2,0l1.2-1.2c0.3-0.3,0.3-0.8,0-1.2L12.4,10z"/>
</g>
</svg>
