<?xml version="1.0" encoding="utf-8"?>
<!-- Generator: Adobe Illustrator 20.1.0, SVG Export Plug-In . SVG Version: 6.00 Build 0)  -->
<svg version="1.1" id="Capa_1" xmlns="http://www.w3.org/2000/svg" xmlns:xlink="http://www.w3.org/1999/xlink" x="0px" y="0px"
	 viewBox="0 0 60 60" style="enable-background:new 0 0 60 60;" xml:space="preserve">
<style type="text/css">
	.st0{fill:#A4A6AB;}
</style>
<path class="st0" d="M0,28.5c0,14.9,13.5,27,30,27c4.3,0,8.4-0.8,12.2-2.3c6.8,3.9,16.2,5.3,16.6,5.3c0,0,0.1,0,0.1,0
	c0.4,0,0.7-0.2,0.9-0.6c0.2-0.4,0.1-0.8-0.2-1.2c-2.3-2.3-3.9-7.2-4.5-13.7c3.1-4.4,4.8-9.4,4.8-14.6c0-14.9-13.5-27-30-27
	S0,13.6,0,28.5z M40,28.5c0-2.2,1.8-4,4-4s4,1.8,4,4s-1.8,4-4,4S40,30.7,40,28.5z M26,28.5c0-2.2,1.8-4,4-4s4,1.8,4,4s-1.8,4-4,4
	S26,30.7,26,28.5z M12,28.5c0-2.2,1.8-4,4-4s4,1.8,4,4s-1.8,4-4,4S12,30.7,12,28.5z"/>
</svg>
