<?xml version="1.0" encoding="utf-8"?>
<!-- Generator: Adobe Illustrator 20.1.0, SVG Export Plug-In . SVG Version: 6.00 Build 0)  -->
<svg version="1.1" id="Layer_1" xmlns="http://www.w3.org/2000/svg" xmlns:xlink="http://www.w3.org/1999/xlink" x="0px" y="0px"
	 viewBox="0 0 40 40" style="enable-background:new 0 0 40 40;" xml:space="preserve">
<style type="text/css">
	.st0{fill:#F39AA2;}
	.st1{fill:#FFFFFF;}
</style>
<rect class="st0" width="40" height="40"/>
<g>
	<g>
		<path class="st1" d="M19.9,21.1C19.9,21.1,20,21.1,19.9,21.1c0.1,0,0.1,0,0.1,0c0,0,0,0,0.1,0c1.7,0,3.2-0.6,4.2-1.8
			c2.3-2.6,1.9-7,1.9-7.5c-0.1-3.2-1.7-4.7-2.9-5.4c-0.9-0.5-2-0.8-3.2-0.8h0c0,0,0,0,0,0h0c-0.7,0-2,0.1-3.2,0.8
			c-1.3,0.7-2.8,2.2-2.9,5.4c0,0.4-0.4,4.9,1.9,7.5C16.7,20.5,18.1,21.1,19.9,21.1z M15.4,12C15.4,12,15.4,12,15.4,12
			c0.2-4.3,3.2-4.8,4.5-4.8h0c0,0,0,0,0,0c1.6,0,4.4,0.7,4.5,4.7c0,0,0,0,0,0c0,0,0.4,4.1-1.5,6.2c-0.8,0.8-1.8,1.3-3.1,1.3
			c0,0,0,0,0,0l0,0c0,0,0,0,0,0c-1.3,0-2.3-0.4-3.1-1.3C15,16.1,15.4,12,15.4,12z"/>
		<path class="st1" d="M32.3,28.5C32.3,28.5,32.3,28.5,32.3,28.5c0-0.1,0-0.1,0-0.2c0-1.2-0.1-3.9-2.7-4.8c0,0,0,0-0.1,0
			c-2.7-0.7-4.9-2.2-5-2.3c-0.4-0.3-0.9-0.2-1.1,0.2c-0.3,0.4-0.2,0.9,0.2,1.1c0.1,0.1,2.5,1.7,5.4,2.5c1.4,0.5,1.5,2,1.6,3.3
			c0,0.1,0,0.1,0,0.1c0,0.5,0,1.4-0.1,1.8c-1,0.5-4.8,2.4-10.5,2.4c-5.7,0-9.6-1.9-10.5-2.5c-0.1-0.5-0.1-1.3-0.1-1.8
			c0,0,0-0.1,0-0.1c0-1.4,0.2-2.8,1.6-3.3c3-0.8,5.3-2.4,5.4-2.5c0.4-0.3,0.5-0.8,0.2-1.1c-0.3-0.4-0.8-0.5-1.1-0.2
			c0,0-2.2,1.6-5,2.3c0,0,0,0-0.1,0c-2.6,0.9-2.7,3.7-2.7,4.8c0,0.1,0,0.1,0,0.1c0,0,0,0,0,0c0,0.3,0,1.9,0.3,2.7
			c0.1,0.2,0.2,0.3,0.3,0.4c0.2,0.1,4.5,2.9,11.6,2.9s11.5-2.7,11.6-2.9c0.1-0.1,0.3-0.2,0.3-0.4C32.3,30.4,32.3,28.8,32.3,28.5z"/>
	</g>
</g>
</svg>
