<?xml version="1.0" encoding="utf-8"?>
<!-- Generator: Adobe Illustrator 20.1.0, SVG Export Plug-In . SVG Version: 6.00 Build 0)  -->
<svg version="1.1" id="Capa_1" xmlns="http://www.w3.org/2000/svg" xmlns:xlink="http://www.w3.org/1999/xlink" x="0px" y="0px"
	 width="100px" height="50px" viewBox="0 0 100 50" style="enable-background:new 0 0 100 50;" xml:space="preserve">
<style type="text/css">
	.st0{fill:#FF9DA2;}
	.st1{fill:#A4A6AB;}
</style>
<path class="st0" d="M74.9,10.1c2-4.8,6.6-8.1,12-8.1c7.2,0,12.4,6.2,13.1,13.5c0,0,0.4,1.8-0.4,5.1c-1.1,4.5-3.5,8.5-6.9,11.5
	L74.9,48L57.5,32.2c-3.4-3-5.8-7-6.9-11.5c-0.8-3.3-0.4-5.1-0.4-5.1C50.8,8.2,56,2,63.3,2C68.6,2,72.8,5.3,74.9,10.1z"/>
<path class="st1" d="M24.9,10.1c2-4.8,6.6-8.1,12-8.1C44.1,2,49.3,8.2,50,15.5c0,0,0.4,1.8-0.4,5.1c-1.1,4.5-3.5,8.5-6.9,11.5
	L24.9,48L7.4,32.2c-3.4-3-5.8-7-6.9-11.5c-0.8-3.3-0.4-5.1-0.4-5.1C0.7,8.2,5.9,2,13.2,2C18.5,2,22.8,5.3,24.9,10.1z"/>
</svg>
