<?xml version="1.0" encoding="utf-8"?>
<!-- Generator: Adobe Illustrator 20.1.0, SVG Export Plug-In . SVG Version: 6.00 Build 0)  -->
<svg version="1.1" id="Capa_1" xmlns="http://www.w3.org/2000/svg" xmlns:xlink="http://www.w3.org/1999/xlink" x="0px" y="0px"
	 viewBox="0 0 61.2 61.2" style="enable-background:new 0 0 61.2 61.2;" xml:space="preserve">
<style type="text/css">
	.st0{fill:#C6C6C6;}
</style>
<g>
	<path class="st0" d="M30.9,27.6c3.9,0,7-3.1,7-7s-3.1-7-7-7s-7,3.1-7,7S27.1,27.6,30.9,27.6z M30.9,15.6c2.8,0,5,2.2,5,5
		s-2.2,5-5,5s-5-2.2-5-5S28.2,15.6,30.9,15.6z"/>
	<path class="st0" d="M41.7,40.6l4.4-6.4c5.8-7.7,4.9-20.3-1.8-27c-3.6-3.6-8.4-5.6-13.6-5.6c-5.1,0-9.9,2-13.6,5.6
		c-6.7,6.7-7.5,19.3-1.8,27l4.5,6.4 M17,33c-5.2-6.9-4.5-18.3,1.6-24.4c3.2-3.2,7.6-5,12.1-5s8.9,1.8,12.1,5c6,6,6.8,17.4,1.6,24.4
		L30.8,52.8l-9.9-14.2l0,0L17,33z M19.8,40.6l10.9,15.8l10.9-15.8"/>
	<rect x="9.3" y="57.3" class="st0" width="42.5" height="2.4"/>
	<path class="st0" d="M31.1,13.9c0.1-3.7,0.2-7.4,0.3-11.1c-0.9,0-9.5-0.2-14.9,6.8c-3.6,4.7-3.6,9.9-3.6,11.4
		c0,1.9,0.2,4.6,1.1,7.7c1.3,4.4,3.5,7.1,7.5,12.4c2,2.7,5.2,6.9,9.1,12.3c3.1-4,5.8-7.6,8.3-10.8c5.9-7.8,7.3-9.9,8.4-13
		c1.6-4.7,1.6-8.9,1.4-11.7C48.3,16.7,46,7.7,37.9,4.3c-2.6-1.1-5-1.3-6.8-1.3C31.1,6.7,31.1,10.3,31.1,13.9c0.9,0.3,2.9,1,4.6,2.9
		c1.3,1.4,1.9,2.9,2.2,3.8c-0.5,1.1-1.4,2.8-3.1,4.4c-1.4,1.4-2.9,2.1-3.9,2.6c-1.3-0.7-3.1-1.8-4.8-3.8c-1-1.2-1.7-2.3-2.2-3.2
		c0.2-0.8,0.7-2.4,2-3.8C27.9,14.6,30.3,14.1,31.1,13.9z"/>
</g>
</svg>
