<?xml version="1.0" encoding="utf-8"?>
<!-- Generator: Adobe Illustrator 20.1.0, SVG Export Plug-In . SVG Version: 6.00 Build 0)  -->
<svg version="1.1" id="Layer_1" xmlns="http://www.w3.org/2000/svg" xmlns:xlink="http://www.w3.org/1999/xlink" x="0px" y="0px"
	 width="100px" height="25px" viewBox="0 0 100 25" style="enable-background:new 0 0 100 25;" xml:space="preserve">
<style type="text/css">
	.st0{fill:#3D5A99;}
	.st1{fill:#FFFFFF;}
	.st2{fill:#2BA7D2;}
	.st3{fill:#CA2428;}
	.st4{fill:#DD4F42;}
</style>
<g>
	<circle class="st0" cx="12.5" cy="12.5" r="12.5"/>
	<path class="st1" d="M15.6,12.6h-2.2v7.8H10v-7.8H8.4V9.9H10V8.1c0-1.3,0.6-3.3,3.4-3.3l2.5,0v2.7h-1.8c-0.3,0-0.7,0.1-0.7,0.7v1.6
		h2.5L15.6,12.6z"/>
</g>
<g>
	<path class="st2" d="M37.5,0C44.4,0,50,5.6,50,12.5C50,19.4,44.4,25,37.5,25S25,19.4,25,12.5C25,5.6,30.6,0,37.5,0z"/>
	<path class="st1" d="M45.3,8.4c-0.5,0.2-1.1,0.4-1.7,0.5c0.6-0.4,1.1-0.9,1.3-1.6C44.3,7.6,43.7,7.8,43,8C42.4,7.4,41.6,7,40.7,7
		c-1.7,0-3,1.3-3,3c0,0.2,0,0.5,0.1,0.7c-2.5-0.1-4.8-1.3-6.3-3.1c-0.3,0.4-0.4,0.9-0.4,1.5c0,1,0.5,1.9,1.4,2.5
		c-0.5,0-1-0.1-1.4-0.4v0c0,1.4,1,2.6,2.4,2.9c-0.3,0.1-0.5,0.1-0.8,0.1c-0.2,0-0.4,0-0.6-0.1c0.4,1.2,1.5,2,2.8,2.1
		c-1,0.8-2.4,1.3-3.8,1.3c-0.2,0-0.5,0-0.7,0c1.3,0.8,2.9,1.3,4.7,1.3c5.6,0,8.7-4.5,8.7-8.4l0-0.4C44.4,9.5,44.9,9,45.3,8.4z"/>
</g>
<circle class="st3" cx="62.5" cy="12.5" r="12.5"/>
<path class="st1" d="M62.5,5.4c-3.9,0-7.2,3.2-7.2,7.1c0,2.9,1.8,5.4,4.3,6.5c0-0.5,0-1.1,0.1-1.6c0.1-0.6,0.9-3.9,0.9-3.9
	s-0.2-0.5-0.2-1.1c0-1.1,0.6-1.9,1.4-1.9c0.6,0,1,0.5,1,1.1c0,0.7-0.4,1.6-0.6,2.5c-0.2,0.8,0.4,1.4,1.1,1.4c1.4,0,2.3-1.7,2.3-3.8
	c0-1.6-1.1-2.7-3-2.7c-2.2,0-3.5,1.6-3.5,3.4c0,0.6,0.2,1.1,0.5,1.4c0.1,0.2,0.2,0.2,0.1,0.4c0,0.1-0.1,0.4-0.1,0.6
	c0,0.2-0.2,0.2-0.4,0.2c-1-0.4-1.5-1.5-1.5-2.7c0-2,1.7-4.5,5.1-4.5c2.7,0,4.5,2,4.5,4.1c0,2.8-1.6,4.9-3.9,4.9
	c-0.8,0-1.5-0.4-1.7-0.9c0,0-0.4,1.6-0.5,2c-0.2,0.5-0.4,1.1-0.7,1.5c0.6,0.2,1.3,0.3,2,0.3c3.9,0,7.1-3.2,7.1-7.1
	C69.6,8.6,66.4,5.4,62.5,5.4z"/>
<g>
	<g>
		<circle id="XMLID_30_" class="st4" cx="87.5" cy="12.5" r="12.5"/>
	</g>
	<g>
		<path class="st4" d="M79.3,12.7c0,2.2,1.4,4.2,3.5,4.9c1.9,0.6,4.3,0.2,5.6-1.5c0.9-1.2,1.1-2.7,1-4.1c-1.6,0-3.3,0-4.9,0
			c0,0.6,0,1.2,0,1.8c1,0,2,0,3,0c-0.2,0.9-0.8,1.6-1.7,2c-1.7,0.7-3.8-0.2-4.3-2c-0.6-1.7,0.4-3.7,2.1-4.2c1.1-0.4,2.1,0,3,0.6
			c0.5-0.4,0.9-0.9,1.3-1.3c-1-0.9-2.3-1.4-3.7-1.3C81.5,7.5,79.2,10,79.3,12.7z"/>
		<path class="st4" d="M92.6,10.4c0,0.5,0,1,0,1.5c-0.5,0-1,0-1.5,0c0,0.5,0,1,0,1.5c0.5,0,1,0,1.5,0c0,0.5,0,1,0,1.5
			c0.5,0,1,0,1.5,0c0-0.5,0-1,0-1.5c0.5,0,1,0,1.5,0c0-0.5,0-1,0-1.5c-0.5,0-1,0-1.5,0c0-0.5,0-1,0-1.5
			C93.6,10.4,93.1,10.4,92.6,10.4z"/>
		<g>
			<path class="st1" d="M79.3,12.7c-0.1-2.7,2.2-5.1,4.9-5.1c1.4-0.1,2.7,0.4,3.7,1.3c-0.4,0.5-0.8,0.9-1.3,1.3c-0.9-0.5-2-1-3-0.6
				c-1.7,0.5-2.7,2.5-2.1,4.2c0.5,1.7,2.6,2.7,4.3,2c0.9-0.3,1.4-1.1,1.7-2c-1,0-2,0-3,0c0-0.6,0-1.2,0-1.8c1.6,0,3.3,0,4.9,0
				c0.1,1.4-0.1,3-1,4.1c-1.3,1.6-3.6,2.1-5.6,1.5C80.7,16.9,79.3,14.8,79.3,12.7z"/>
			<path class="st1" d="M92.6,10.4c0.5,0,1,0,1.5,0c0,0.5,0,1,0,1.5c0.5,0,1,0,1.5,0c0,0.5,0,1,0,1.5c-0.5,0-1,0-1.5,0
				c0,0.5,0,1,0,1.5c-0.5,0-1,0-1.5,0c0-0.5,0-1,0-1.5c-0.5,0-1,0-1.5,0c0-0.5,0-1,0-1.5c0.5,0,1,0,1.5,0
				C92.6,11.4,92.6,10.9,92.6,10.4z"/>
		</g>
	</g>
</g>
</svg>
