<?xml version="1.0" encoding="utf-8"?>
<!-- Generator: Adobe Illustrator 20.1.0, SVG Export Plug-In . SVG Version: 6.00 Build 0)  -->
<svg version="1.1" id="Layer_1" xmlns="http://www.w3.org/2000/svg" xmlns:xlink="http://www.w3.org/1999/xlink" x="0px" y="0px"
	 viewBox="0 0 27 27" style="enable-background:new 0 0 27 27;" xml:space="preserve">
<style type="text/css">
	.st0{fill:#FFFFFF;}
	.st1{fill:none;stroke:#FFFFFF;stroke-width:0.25;stroke-miterlimit:10;}
</style>
<path class="st0" d="M27,11.7h-2.7c-1.5-5.2-4.7-8-9-9V0h-3.7v2.7c-5.1,1.2-7.7,4.8-9,9H0v3.7h2.7c1.6,5,3,6.6,9,9V27h3.7v-2.7
	c5.7-1.8,7.2-3.9,9-9H27V11.7z M14.3,21.7L14.3,21.7h-1.7l0,0c-4-0.3-7-3.3-7.3-7.3l0,0v-1.7l0,0c0.3-4,3.3-7,7.3-7.3l0,0h1.7l0,0
	c4,0.3,7,3.5,7.3,7.3l0,0v1.7l0,0C21.3,18.3,18.3,21.3,14.3,21.7z"/>
<circle class="st0" cx="13.4" cy="13.6" r="5.5"/>
<circle class="st1" cx="13.5" cy="13.5" r="10.8"/>
</svg>
